<?xml version="1.0" standalone="no"?>
<!DOCTYPE svg PUBLIC "-//W3C//DTD SVG 20010904//EN"
 "http://www.w3.org/TR/2001/REC-SVG-20010904/DTD/svg10.dtd">
<svg version="1.0" xmlns="http://www.w3.org/2000/svg"
 width="538.000000pt" height="538.000000pt" viewBox="0 0 538.000000 538.000000"
 preserveAspectRatio="xMidYMid meet">
<metadata>
Created by potrace 1.11, written by Peter Selinger 2001-2013
</metadata>
<g transform="translate(0.000000,538.000000) scale(0.100000,-0.100000)"
fill="#000000" stroke="none">
<path d="M4053 5332 c-78 -39 -94 -51 -109 -83 -22 -51 -89 -116 -148 -146
-116 -59 -80 -56 -871 -63 -686 -6 -737 -8 -845 -28 -286 -52 -496 -153 -650
-311 -121 -125 -193 -270 -224 -450 -41 -242 1 -461 125 -645 58 -88 132 -159
233 -225 139 -90 291 -131 491 -131 116 1 270 20 285 37 4 4 -13 65 -38 134
l-45 126 -56 -10 c-65 -10 -171 -2 -255 19 -137 35 -258 127 -308 234 -63 135
-81 343 -40 475 71 232 288 370 635 405 61 6 211 10 332 8 l220 -3 0 -1300 0
-1300 -61 -5 c-42 -3 -69 -11 -84 -25 -69 -61 -66 -198 5 -253 21 -17 41 -22
86 -22 l59 0 0 -170 0 -170 -390 0 -390 0 0 -150 0 -150 253 -2 252 -3 3 -202
2 -203 -255 0 -255 0 0 -150 0 -150 390 0 390 0 0 -169 c0 -158 1 -170 22
-196 33 -43 76 -55 188 -55 80 0 109 4 139 20 75 38 71 -12 71 919 l0 831 50
0 c97 0 142 47 142 150 0 103 -45 150 -142 150 l-50 0 0 1305 0 1305 184 0
c208 0 312 14 436 59 217 80 337 224 347 419 5 83 -9 198 -25 213 -4 4 -48
-14 -99 -39z"/>
</g>
</svg>
