<?xml version="1.0" encoding="utf-8"?>
<!-- Generator: Adobe Illustrator 16.0.0, SVG Export Plug-In . SVG Version: 6.00 Build 0)  -->
<!DOCTYPE svg PUBLIC "-//W3C//DTD SVG 1.1//EN" "http://www.w3.org/Graphics/SVG/1.1/DTD/svg11.dtd">
<svg version="1.1" id="Layer_1" xmlns="http://www.w3.org/2000/svg" xmlns:xlink="http://www.w3.org/1999/xlink" x="0px" y="0px"
	 width="681.927px" height="681.926px" viewBox="0 0 681.927 681.926" enable-background="new 0 0 681.927 681.926"
	 xml:space="preserve">
<circle display="none" fill="#99BD79" cx="511.446" cy="170.481" r="170.482"/>
<rect x="442.885" y="201.661" transform="matrix(0.7116 -0.7025 0.7025 0.7116 -1.533 444.9204)" fill="#FFFFFF" width="196.667" height="45.334"/>
<rect x="443.573" y="94.656" transform="matrix(0.7025 0.7116 -0.7116 0.7025 244.6836 -350.7434)" fill="#FFFFFF" width="196.667" height="45.334"/>
<circle display="none" fill="#99BD79" cx="170.482" cy="170.481" r="170.482"/>
<rect x="42.375" y="201.661" transform="matrix(-0.7116 -0.7025 0.7025 -0.7116 83.241 482.8219)" fill="#FFFFFF" width="196.667" height="45.334"/>
<rect x="41.687" y="94.656" transform="matrix(-0.7025 0.7116 -0.7116 -0.7025 321.8827 100.1035)" fill="#FFFFFF" width="196.667" height="45.334"/>
<rect x="442.885" y="201.661" transform="matrix(0.7116 -0.7025 0.7025 0.7116 -1.533 444.9204)" fill="#FFFFFF" width="196.667" height="45.334"/>
<rect x="443.573" y="94.656" transform="matrix(0.7025 0.7116 -0.7116 0.7025 244.6836 -350.7434)" fill="#FFFFFF" width="196.667" height="45.334"/>
<circle display="none" fill="#99BD79" cx="170.482" cy="170.481" r="170.482"/>
<rect x="42.375" y="201.661" transform="matrix(-0.7116 -0.7025 0.7025 -0.7116 83.241 482.8219)" fill="#FFFFFF" width="196.667" height="45.334"/>
<rect x="41.687" y="94.656" transform="matrix(-0.7025 0.7116 -0.7116 -0.7025 321.8827 100.1035)" fill="#FFFFFF" width="196.667" height="45.334"/>
<circle display="none" fill="#84A06D" cx="511.446" cy="511.444" r="170.482"/>
<rect x="442.885" y="542.623" transform="matrix(0.7116 -0.7025 0.7025 0.7116 -241.076 543.2419)" fill="#FFFFFF" width="196.667" height="45.334"/>
<rect x="443.574" y="435.619" transform="matrix(0.7025 0.7116 -0.7116 0.7025 487.3246 -249.3226)" fill="#FFFFFF" width="196.666" height="45.334"/>
<circle display="none" fill="#84A06D" cx="170.482" cy="511.444" r="170.482"/>
<rect x="42.375" y="542.623" transform="matrix(-0.7116 -0.7025 0.7025 -0.7116 -156.302 1066.4263)" fill="#FFFFFF" width="196.667" height="45.334"/>
<rect x="41.687" y="435.619" transform="matrix(-0.7025 0.7116 -0.7116 -0.7025 564.5245 680.6093)" fill="#FFFFFF" width="196.666" height="45.334"/>
</svg>
